<svg id="svg" version="1.1" xmlns="http://www.w3.org/2000/svg" xmlns:xlink="http://www.w3.org/1999/xlink" width="400" height="400" viewBox="0, 0, 400,400"><g id="svgg"><path id="path0" d="M0.000 200.000 L 0.000 400.000 200.000 400.000 L 400.000 400.000 400.000 200.000 L 400.000 0.000 200.000 0.000 L 0.000 0.000 0.000 200.000 M183.330 78.655 C 188.799 80.020,195.168 83.324,198.822 86.692 L 200.315 88.068 202.074 86.580 C 226.382 66.028,263.172 83.125,263.051 114.917 C 263.014 124.571,259.322 133.430,252.221 140.906 L 249.905 143.344 251.376 144.755 C 270.129 162.746,265.613 193.325,242.500 204.854 C 229.805 211.187,214.181 209.520,203.235 200.666 L 200.340 198.323 197.982 200.303 C 183.680 212.311,161.978 211.294,148.645 197.990 C 134.160 183.536,134.022 160.945,148.327 145.886 C 151.128 142.937,151.093 143.532,148.620 140.961 C 127.833 119.353,138.099 84.755,167.167 78.461 C 171.864 77.444,178.810 77.527,183.330 78.655 M251.005 243.621 C 254.182 245.320,254.182 250.014,251.005 251.712 C 248.716 252.936,246.044 252.181,244.665 249.920 C 242.275 246.001,246.887 241.419,251.005 243.621 M155.833 245.120 C 161.060 246.516,163.948 249.762,164.264 254.596 L 164.423 257.025 161.128 256.929 L 157.833 256.833 157.651 255.333 C 157.102 250.812,150.156 248.841,147.191 252.365 C 144.738 255.281,146.940 257.517,153.667 258.939 C 161.983 260.696,165.000 263.469,165.000 269.356 C 165.000 275.557,160.758 279.484,153.595 279.916 C 144.746 280.449,139.083 276.095,138.425 268.250 L 138.237 266.000 141.572 266.000 L 144.907 266.000 145.095 267.827 C 145.663 273.324,152.743 276.213,156.837 272.619 C 160.418 269.475,158.114 266.407,150.990 264.831 C 142.571 262.969,139.847 260.526,139.838 254.833 C 139.826 247.367,147.286 242.837,155.833 245.120 M219.667 259.333 L 219.667 273.667 223.667 273.667 L 227.667 273.667 227.667 276.667 L 227.667 279.667 216.167 279.667 L 204.667 279.667 204.667 276.667 L 204.667 273.667 209.000 273.667 L 213.333 273.667 213.333 262.333 L 213.333 251.000 209.167 251.000 L 205.000 251.000 205.000 248.000 L 205.000 245.000 212.333 245.000 L 219.667 245.000 219.667 259.333 M184.440 255.024 C 185.141 255.219,186.284 255.893,186.981 256.522 C 188.625 258.008,189.000 257.972,189.000 256.333 L 189.000 255.000 192.161 255.000 L 195.323 255.000 195.411 264.250 L 195.500 273.500 196.537 273.667 L 197.574 273.833 197.641 276.750 L 197.708 279.667 195.004 279.667 C 191.331 279.667,189.333 278.440,189.333 276.183 C 189.333 275.225,188.505 275.662,187.722 277.034 C 185.377 281.140,177.723 280.928,173.857 276.649 C 168.140 270.321,170.408 257.819,177.744 255.223 C 179.432 254.625,182.660 254.530,184.440 255.024 M252.000 264.333 L 252.000 273.667 255.500 273.667 L 259.000 273.667 259.000 276.667 L 259.000 279.667 248.167 279.667 L 237.333 279.667 237.333 276.667 L 237.333 273.667 241.500 273.667 L 245.667 273.667 245.667 267.333 L 245.667 261.000 241.833 261.000 L 238.000 261.000 238.000 258.000 L 238.000 255.000 245.000 255.000 L 252.000 255.000 252.000 264.333 M179.987 261.434 C 175.866 263.613,175.885 271.041,180.018 273.261 C 183.905 275.350,188.286 272.997,188.845 268.519 C 189.572 262.704,184.801 258.889,179.987 261.434 M51.600 306.400 C 52.535 307.335,51.831 309.000,50.500 309.000 C 49.607 309.000,49.000 308.393,49.000 307.500 C 49.000 306.607,49.607 306.000,50.500 306.000 C 50.885 306.000,51.380 306.180,51.600 306.400 M185.933 306.400 C 186.153 306.620,186.333 307.115,186.333 307.500 C 186.333 307.885,186.153 308.380,185.933 308.600 C 185.713 308.820,185.218 309.000,184.833 309.000 C 184.448 309.000,183.953 308.820,183.733 308.600 C 183.513 308.380,183.333 307.885,183.333 307.500 C 183.333 307.115,183.513 306.620,183.733 306.400 C 183.953 306.180,184.448 306.000,184.833 306.000 C 185.218 306.000,185.713 306.180,185.933 306.400 M41.761 306.787 C 44.105 307.780,45.047 310.414,43.124 310.601 C 42.246 310.687,42.048 310.569,41.869 309.856 C 41.504 308.404,38.594 308.172,38.394 309.580 C 38.277 310.400,38.793 310.714,41.288 311.345 C 45.525 312.416,45.367 317.429,41.073 318.154 C 38.392 318.607,35.667 316.826,35.667 314.620 C 35.667 313.377,37.725 313.269,37.950 314.500 C 38.324 316.546,42.000 316.631,42.000 314.593 C 42.000 313.955,41.436 313.652,39.043 313.008 C 37.126 312.492,36.000 311.350,36.000 309.923 C 36.000 307.248,38.997 305.617,41.761 306.787 M71.667 308.333 L 71.667 310.000 73.115 310.000 C 75.305 310.000,75.262 311.775,73.068 311.936 L 71.667 312.038 71.667 314.019 L 71.667 316.000 73.000 316.000 C 74.259 316.000,74.333 316.056,74.333 317.000 L 74.333 318.000 72.233 318.000 C 69.524 318.000,69.333 317.777,69.333 314.600 L 69.333 312.000 68.167 312.000 C 67.093 312.000,67.000 311.921,67.000 311.000 C 67.000 310.079,67.093 310.000,68.167 310.000 L 69.333 310.000 69.333 308.333 L 69.333 306.667 70.500 306.667 L 71.667 306.667 71.667 308.333 M127.000 312.333 L 127.000 318.000 125.833 318.000 C 124.850 318.000,124.667 317.884,124.667 317.259 L 124.667 316.518 124.166 317.233 C 123.043 318.837,119.863 318.324,118.855 316.376 C 116.884 312.563,120.689 307.920,123.788 310.358 L 124.667 311.048 124.667 308.858 L 124.667 306.667 125.833 306.667 L 127.000 306.667 127.000 312.333 M157.066 312.000 C 158.596 318.347,158.589 318.000,157.182 318.000 C 156.130 318.000,156.011 317.899,155.811 316.833 L 155.592 315.667 153.667 315.667 L 151.741 315.667 151.522 316.833 C 151.310 317.962,149.000 318.735,149.000 317.677 C 149.000 317.311,151.257 307.735,151.500 307.067 C 151.612 306.760,152.263 306.664,153.739 306.734 L 155.820 306.833 157.066 312.000 M234.667 311.333 L 234.667 316.000 237.167 316.000 L 239.667 316.000 239.667 317.000 L 239.667 318.000 236.000 318.000 L 232.333 318.000 232.333 312.333 L 232.333 306.667 233.500 306.667 L 234.667 306.667 234.667 311.333 M281.667 312.333 L 281.667 318.000 280.500 318.000 C 279.517 318.000,279.333 317.884,279.333 317.259 L 279.333 316.518 278.833 317.233 C 277.709 318.837,274.529 318.324,273.522 316.376 C 271.550 312.563,275.356 307.920,278.455 310.358 L 279.333 311.048 279.333 308.858 L 279.333 306.667 280.500 306.667 L 281.667 306.667 281.667 312.333 M312.333 307.667 C 312.333 308.630,312.278 308.667,310.833 308.667 L 309.333 308.667 309.333 312.333 L 309.333 316.000 310.833 316.000 C 312.278 316.000,312.333 316.037,312.333 317.000 L 312.333 318.000 308.333 318.000 L 304.333 318.000 304.333 317.000 C 304.333 316.037,304.389 316.000,305.833 316.000 L 307.333 316.000 307.333 312.333 L 307.333 308.667 305.833 308.667 C 304.389 308.667,304.333 308.630,304.333 307.667 L 304.333 306.667 308.333 306.667 L 312.333 306.667 312.333 307.667 M323.000 312.333 L 323.000 318.000 321.833 318.000 C 320.850 318.000,320.667 317.884,320.667 317.259 L 320.667 316.518 320.166 317.233 C 319.043 318.837,315.863 318.324,314.855 316.376 C 312.884 312.563,316.689 307.920,319.788 310.358 L 320.667 311.048 320.667 308.858 L 320.667 306.667 321.833 306.667 L 323.000 306.667 323.000 312.333 M153.044 310.083 C 152.812 311.229,152.541 312.504,152.441 312.917 C 152.276 313.604,152.378 313.667,153.667 313.667 C 154.956 313.667,155.057 313.604,154.892 312.917 C 154.793 312.504,154.522 311.229,154.289 310.083 C 154.057 308.938,153.777 308.000,153.667 308.000 C 153.557 308.000,153.277 308.938,153.044 310.083 M61.928 310.025 C 63.592 310.605,64.266 311.916,63.123 312.350 C 62.507 312.584,62.116 312.583,61.879 312.346 C 61.400 311.867,59.578 311.900,59.739 312.384 C 59.810 312.595,60.572 312.947,61.434 313.166 C 65.054 314.085,65.317 317.491,61.818 318.147 C 58.942 318.687,55.515 315.862,58.222 315.183 C 58.860 315.022,59.200 315.107,59.408 315.479 C 59.797 316.174,62.000 316.198,62.000 315.506 C 62.000 315.235,61.625 314.935,61.167 314.840 C 60.708 314.745,59.955 314.588,59.492 314.492 C 56.868 313.946,56.816 310.405,59.423 309.901 C 60.718 309.651,60.878 309.659,61.928 310.025 M83.214 310.212 C 84.517 310.830,85.333 312.155,85.333 313.650 L 85.333 314.667 82.500 314.667 C 80.300 314.667,79.667 314.771,79.667 315.131 C 79.667 315.991,82.168 316.365,82.916 315.617 C 83.561 314.973,85.183 316.211,84.606 316.907 C 83.472 318.274,80.377 318.636,78.985 317.563 C 74.962 314.466,78.655 308.048,83.214 310.212 M91.825 310.119 C 92.351 310.504,92.580 310.494,93.347 310.054 C 95.307 308.929,96.000 310.050,96.000 314.341 L 96.000 318.000 95.013 318.000 L 94.025 318.000 93.929 314.917 C 93.852 312.441,93.735 311.833,93.333 311.833 C 92.932 311.833,92.814 312.441,92.737 314.917 L 92.642 318.000 91.667 318.000 L 90.692 318.000 90.596 314.917 C 90.519 312.441,90.402 311.833,90.000 311.833 C 89.598 311.833,89.481 312.441,89.404 314.917 L 89.308 318.000 88.321 318.000 L 87.333 318.000 87.333 314.000 L 87.333 310.000 88.333 310.000 C 88.895 310.000,89.333 310.177,89.333 310.405 C 89.333 310.657,89.548 310.595,89.905 310.238 C 90.595 309.548,91.009 309.523,91.825 310.119 M102.750 310.149 C 103.254 310.412,103.667 310.486,103.667 310.314 C 103.667 310.141,104.117 310.000,104.667 310.000 L 105.667 310.000 105.667 312.844 C 105.667 315.064,105.776 315.730,106.167 315.879 C 106.452 315.989,106.667 316.486,106.667 317.036 C 106.667 318.138,104.806 318.472,104.010 317.513 C 103.660 317.090,103.478 317.120,102.646 317.735 C 100.546 319.288,97.671 317.169,97.668 314.067 C 97.665 310.833,100.247 308.843,102.750 310.149 M134.881 310.212 C 136.183 310.830,137.000 312.155,137.000 313.650 L 137.000 314.667 134.167 314.667 C 131.967 314.667,131.333 314.771,131.333 315.131 C 131.333 315.991,133.835 316.365,134.583 315.617 C 135.227 314.973,136.849 316.211,136.272 316.907 C 135.139 318.274,132.044 318.636,130.651 317.563 C 126.629 314.466,130.321 308.048,134.881 310.212 M166.189 310.155 C 168.138 310.969,168.965 314.144,167.811 316.376 C 166.854 318.227,164.090 318.780,162.583 317.422 C 162.034 316.927,162.000 317.024,162.000 319.115 L 162.000 321.333 160.833 321.333 L 159.667 321.333 159.667 315.667 L 159.667 310.000 160.833 310.000 C 161.818 310.000,162.002 310.117,162.010 310.750 C 162.019 311.437,162.050 311.449,162.372 310.895 C 163.058 309.715,164.478 309.440,166.189 310.155 M177.064 310.712 C 178.333 311.616,178.896 313.587,178.378 315.317 C 177.376 318.659,172.500 319.263,170.675 316.270 C 168.186 312.187,173.114 307.900,177.064 310.712 M197.730 310.712 C 199.000 311.616,199.563 313.587,199.044 315.317 C 198.043 318.659,193.167 319.263,191.342 316.270 C 188.840 312.166,193.760 307.885,197.730 310.712 M216.083 310.149 C 216.588 310.412,217.000 310.486,217.000 310.314 C 217.000 310.141,217.450 310.000,218.000 310.000 L 219.000 310.000 219.000 312.844 C 219.000 315.064,219.110 315.730,219.500 315.879 C 219.785 315.989,220.000 316.486,220.000 317.036 C 220.000 318.138,218.140 318.472,217.344 317.513 C 216.993 317.090,216.811 317.120,215.979 317.735 C 213.879 319.288,211.004 317.169,211.001 314.067 C 210.998 310.833,213.580 308.843,216.083 310.149 M247.083 310.149 C 247.588 310.412,248.000 310.486,248.000 310.314 C 248.000 310.141,248.450 310.000,249.000 310.000 L 250.000 310.000 250.000 312.844 C 250.000 315.064,250.110 315.730,250.500 315.879 C 250.785 315.989,251.000 316.486,251.000 317.036 C 251.000 318.138,249.140 318.472,248.344 317.513 C 247.993 317.090,247.811 317.120,246.979 317.735 C 244.879 319.288,242.004 317.169,242.001 314.067 C 241.998 310.833,244.580 308.843,247.083 310.149 M260.417 310.705 C 261.416 311.909,261.197 313.333,260.012 313.333 C 259.365 313.333,258.900 313.103,258.667 312.667 C 257.717 310.892,256.000 312.301,256.000 314.855 C 256.000 315.905,256.083 316.000,257.000 316.000 C 257.889 316.000,258.000 316.111,258.000 317.000 L 258.000 318.000 255.167 318.000 L 252.333 318.000 252.333 317.000 C 252.333 316.156,252.463 316.000,253.167 316.000 C 254.392 316.000,254.471 312.113,253.250 311.940 C 251.342 311.669,252.112 310.000,254.145 310.000 C 255.610 310.000,256.000 310.110,256.000 310.524 C 256.000 310.954,256.164 310.919,256.911 310.331 C 258.006 309.471,259.527 309.633,260.417 310.705 M289.548 310.212 C 290.850 310.830,291.667 312.155,291.667 313.650 L 291.667 314.667 288.833 314.667 C 286.634 314.667,286.000 314.771,286.000 315.131 C 286.000 315.991,288.501 316.365,289.250 315.617 C 289.894 314.973,291.516 316.211,290.939 316.907 C 289.805 318.274,286.710 318.636,285.318 317.563 C 281.295 314.466,284.988 308.048,289.548 310.212 M331.730 310.712 C 333.000 311.616,333.563 313.587,333.044 315.317 C 332.043 318.659,327.167 319.263,325.342 316.270 C 322.853 312.187,327.781 307.900,331.730 310.712 M340.595 310.025 C 342.259 310.605,342.932 311.916,341.790 312.350 C 341.173 312.584,340.783 312.583,340.546 312.346 C 340.067 311.867,338.244 311.900,338.406 312.384 C 338.476 312.595,339.239 312.947,340.100 313.166 C 343.720 314.085,343.983 317.491,340.485 318.147 C 337.609 318.687,334.182 315.862,336.889 315.183 C 337.527 315.022,337.867 315.107,338.075 315.479 C 338.464 316.174,340.667 316.198,340.667 315.506 C 340.667 315.235,340.292 314.935,339.833 314.840 C 339.375 314.745,338.621 314.588,338.158 314.492 C 335.535 313.946,335.482 310.405,338.090 309.901 C 339.384 309.651,339.545 309.659,340.595 310.025 M352.397 310.712 C 353.667 311.616,354.229 313.587,353.711 315.317 C 352.710 318.659,347.833 319.263,346.009 316.270 C 343.506 312.166,348.427 307.885,352.397 310.712 M361.262 310.025 C 362.926 310.605,363.599 311.916,362.456 312.350 C 361.840 312.584,361.450 312.583,361.212 312.346 C 360.734 311.867,358.911 311.900,359.072 312.384 C 359.143 312.595,359.905 312.947,360.767 313.166 C 364.387 314.085,364.650 317.491,361.152 318.147 C 358.276 318.687,354.849 315.862,357.555 315.183 C 358.194 315.022,358.534 315.107,358.742 315.479 C 359.131 316.174,361.333 316.198,361.333 315.506 C 361.333 315.235,360.958 314.935,360.500 314.840 C 360.042 314.745,359.288 314.588,358.825 314.492 C 356.201 313.946,356.149 310.405,358.757 309.901 C 360.051 309.651,360.212 309.659,361.262 310.025 M51.667 313.000 L 51.667 316.000 52.833 316.000 C 53.907 316.000,54.000 316.079,54.000 317.000 L 54.000 318.000 50.333 318.000 L 46.667 318.000 46.667 317.000 C 46.667 316.056,46.741 316.000,48.000 316.000 L 49.333 316.000 49.333 314.000 L 49.333 312.000 48.167 312.000 C 47.093 312.000,47.000 311.921,47.000 311.000 L 47.000 310.000 49.333 310.000 L 51.667 310.000 51.667 313.000 M186.000 313.000 L 186.000 316.000 187.167 316.000 C 188.241 316.000,188.333 316.079,188.333 317.000 L 188.333 318.000 184.667 318.000 L 181.000 318.000 181.000 317.000 C 181.000 316.056,181.074 316.000,182.333 316.000 L 183.667 316.000 183.667 314.000 L 183.667 312.000 182.500 312.000 C 181.426 312.000,181.333 311.921,181.333 311.000 L 181.333 310.000 183.667 310.000 L 186.000 310.000 186.000 313.000 M79.833 312.333 C 79.706 312.539,80.281 312.667,81.333 312.667 C 82.386 312.667,82.960 312.539,82.833 312.333 C 82.720 312.150,82.045 312.000,81.333 312.000 C 80.622 312.000,79.947 312.150,79.833 312.333 M100.199 312.722 C 99.121 314.261,100.024 316.107,101.772 315.935 C 104.188 315.698,104.188 312.302,101.772 312.065 C 100.994 311.988,100.596 312.155,100.199 312.722 M121.067 312.400 C 120.549 312.917,120.549 315.083,121.067 315.600 C 122.243 316.776,124.667 315.699,124.667 314.000 C 124.667 312.301,122.243 311.224,121.067 312.400 M131.500 312.333 C 131.373 312.539,131.948 312.667,133.000 312.667 C 134.052 312.667,134.627 312.539,134.500 312.333 C 134.387 312.150,133.712 312.000,133.000 312.000 C 132.288 312.000,131.613 312.150,131.500 312.333 M162.524 312.524 C 161.228 313.820,162.231 316.000,164.124 316.000 C 165.515 316.000,166.000 315.483,166.000 314.000 C 166.000 312.083,163.870 311.178,162.524 312.524 M172.678 312.645 C 171.741 314.396,172.533 316.000,174.333 316.000 C 175.762 316.000,176.333 315.395,176.333 313.879 C 176.333 312.136,173.468 311.169,172.678 312.645 M193.345 312.645 C 192.408 314.396,193.199 316.000,195.000 316.000 C 196.429 316.000,197.000 315.395,197.000 313.879 C 197.000 312.136,194.135 311.169,193.345 312.645 M213.532 312.722 C 212.454 314.261,213.358 316.107,215.105 315.935 C 217.522 315.698,217.522 312.302,215.105 312.065 C 214.328 311.988,213.929 312.155,213.532 312.722 M244.532 312.722 C 243.454 314.261,244.358 316.107,246.105 315.935 C 248.522 315.698,248.522 312.302,246.105 312.065 C 245.328 311.988,244.929 312.155,244.532 312.722 M275.733 312.400 C 274.515 313.619,275.491 316.000,277.210 316.000 C 278.540 316.000,279.333 315.253,279.333 314.000 C 279.333 312.301,276.909 311.224,275.733 312.400 M286.167 312.333 C 286.040 312.539,286.614 312.667,287.667 312.667 C 288.719 312.667,289.294 312.539,289.167 312.333 C 289.053 312.150,288.378 312.000,287.667 312.000 C 286.955 312.000,286.280 312.150,286.167 312.333 M317.067 312.400 C 315.848 313.619,316.824 316.000,318.543 316.000 C 319.873 316.000,320.667 315.253,320.667 314.000 C 320.667 312.301,318.243 311.224,317.067 312.400 M327.345 312.645 C 326.408 314.396,327.199 316.000,329.000 316.000 C 330.429 316.000,331.000 315.395,331.000 313.879 C 331.000 312.136,328.135 311.169,327.345 312.645 M348.012 312.645 C 347.075 314.396,347.866 316.000,349.667 316.000 C 351.096 316.000,351.667 315.395,351.667 313.879 C 351.667 312.136,348.802 311.169,348.012 312.645 " stroke="none" fill="#fcfcfc" fill-rule="evenodd"></path><path id="path1" d="M175.667 118.297 C 162.192 131.825,151.185 143.011,151.208 143.155 C 151.231 143.299,162.328 154.501,175.869 168.047 L 200.489 192.676 225.078 168.089 C 238.602 154.566,249.667 143.351,249.667 143.167 C 249.667 142.828,200.639 93.652,200.332 93.684 C 200.241 93.693,189.142 104.769,175.667 118.297 M69.433 308.333 C 69.433 309.342,69.496 309.754,69.572 309.250 C 69.648 308.746,69.648 307.921,69.572 307.417 C 69.496 306.912,69.433 307.325,69.433 308.333 M124.776 308.833 C 124.778 310.117,124.838 310.601,124.910 309.909 C 124.982 309.218,124.981 308.168,124.907 307.576 C 124.834 306.984,124.775 307.550,124.776 308.833 M279.443 308.833 C 279.444 310.117,279.504 310.601,279.577 309.909 C 279.649 309.218,279.648 308.168,279.574 307.576 C 279.500 306.984,279.441 307.550,279.443 308.833 M320.776 308.833 C 320.778 310.117,320.838 310.601,320.910 309.909 C 320.982 309.218,320.981 308.168,320.907 307.576 C 320.834 306.984,320.775 307.550,320.776 308.833 M51.453 313.000 C 51.453 314.742,51.510 315.454,51.578 314.583 C 51.647 313.712,51.647 312.287,51.578 311.417 C 51.510 310.546,51.453 311.258,51.453 313.000 M185.787 313.000 C 185.787 314.742,185.843 315.454,185.912 314.583 C 185.980 313.712,185.980 312.287,185.912 311.417 C 185.843 310.546,185.787 311.258,185.787 313.000 M69.448 314.500 C 69.449 315.967,69.507 316.525,69.578 315.741 C 69.648 314.957,69.647 313.757,69.576 313.075 C 69.504 312.392,69.446 313.033,69.448 314.500 M46.744 317.000 C 46.744 317.642,46.813 317.904,46.896 317.583 C 46.980 317.262,46.980 316.737,46.896 316.417 C 46.813 316.096,46.744 316.358,46.744 317.000 M53.744 317.000 C 53.744 317.642,53.813 317.904,53.896 317.583 C 53.980 317.262,53.980 316.737,53.896 316.417 C 53.813 316.096,53.744 316.358,53.744 317.000 M181.077 317.000 C 181.077 317.642,181.146 317.904,181.230 317.583 C 181.314 317.262,181.314 316.737,181.230 316.417 C 181.146 316.096,181.077 316.358,181.077 317.000 M188.077 317.000 C 188.077 317.642,188.146 317.904,188.230 317.583 C 188.314 317.262,188.314 316.737,188.230 316.417 C 188.146 316.096,188.077 316.358,188.077 317.000 M161.776 319.167 C 161.778 320.450,161.838 320.934,161.910 320.243 C 161.982 319.551,161.981 318.501,161.907 317.909 C 161.834 317.317,161.775 317.883,161.776 319.167 " stroke="none" fill="#6c64bc" fill-rule="evenodd"></path><path id="path2" d="M168.833 78.199 C 139.218 83.444,127.381 118.589,147.986 140.095 L 150.911 143.149 175.649 118.349 L 200.387 93.549 225.196 118.366 L 250.006 143.182 251.613 141.508 C 259.583 133.206,262.829 125.386,262.827 114.500 C 262.819 83.299,227.397 66.502,202.811 86.039 L 200.264 88.063 199.215 87.072 C 191.725 79.993,179.260 76.352,168.833 78.199 M164.167 156.667 C 171.498 164.000,177.572 170.000,177.664 170.000 C 177.755 170.000,171.832 164.000,164.500 156.667 C 157.168 149.333,151.095 143.333,151.003 143.333 C 150.911 143.333,156.835 149.333,164.167 156.667 M193.000 185.500 C 196.938 189.442,200.236 192.667,200.328 192.667 C 200.419 192.667,197.272 189.442,193.333 185.500 C 189.395 181.558,186.097 178.333,186.006 178.333 C 185.914 178.333,189.062 181.558,193.000 185.500 M71.433 308.333 C 71.433 309.342,71.496 309.754,71.572 309.250 C 71.648 308.746,71.648 307.921,71.572 307.417 C 71.496 306.912,71.433 307.325,71.433 308.333 M126.804 312.333 C 126.804 315.542,126.854 316.854,126.915 315.250 C 126.976 313.646,126.976 311.021,126.915 309.417 C 126.854 307.813,126.804 309.125,126.804 312.333 M234.466 311.333 C 234.466 313.992,234.518 315.079,234.581 313.750 C 234.644 312.421,234.644 310.246,234.581 308.917 C 234.518 307.587,234.466 308.675,234.466 311.333 M281.470 312.333 C 281.470 315.542,281.520 316.854,281.582 315.250 C 281.643 313.646,281.643 311.021,281.582 309.417 C 281.520 307.813,281.470 309.125,281.470 312.333 M304.411 307.667 C 304.411 308.308,304.479 308.571,304.563 308.250 C 304.647 307.929,304.647 307.404,304.563 307.083 C 304.479 306.762,304.411 307.025,304.411 307.667 M312.077 307.667 C 312.077 308.308,312.146 308.571,312.230 308.250 C 312.314 307.929,312.314 307.404,312.230 307.083 C 312.146 306.762,312.077 307.025,312.077 307.667 M322.804 312.333 C 322.804 315.542,322.854 316.854,322.915 315.250 C 322.976 313.646,322.976 311.021,322.915 309.417 C 322.854 307.813,322.804 309.125,322.804 312.333 M159.804 315.667 C 159.804 318.875,159.854 320.188,159.915 318.583 C 159.976 316.979,159.976 314.354,159.915 312.750 C 159.854 311.146,159.804 312.458,159.804 315.667 M49.440 314.000 C 49.440 315.192,49.501 315.679,49.574 315.083 C 49.648 314.487,49.648 313.512,49.574 312.917 C 49.501 312.321,49.440 312.808,49.440 314.000 M71.437 313.833 C 71.438 314.933,71.501 315.343,71.575 314.744 C 71.649 314.145,71.648 313.245,71.572 312.744 C 71.495 312.243,71.435 312.733,71.437 313.833 M183.773 314.000 C 183.773 315.192,183.834 315.679,183.908 315.083 C 183.982 314.487,183.982 313.512,183.908 312.917 C 183.834 312.321,183.773 312.808,183.773 314.000 M304.411 317.000 C 304.411 317.642,304.479 317.904,304.563 317.583 C 304.647 317.262,304.647 316.737,304.563 316.417 C 304.479 316.096,304.411 316.358,304.411 317.000 " stroke="none" fill="#948cc4" fill-rule="evenodd"></path><path id="path3" d="M148.041 146.167 C 137.719 157.565,134.967 171.681,140.366 185.534 C 149.311 208.485,179.133 216.130,197.982 200.303 L 200.340 198.323 203.235 200.666 C 214.181 209.520,229.805 211.187,242.500 204.854 C 265.628 193.317,270.130 162.743,251.352 144.732 L 249.856 143.298 225.284 167.891 C 211.770 181.418,200.589 192.526,200.437 192.576 C 200.286 192.627,189.046 181.530,175.460 167.917 L 150.757 143.167 148.041 146.167 M157.801 256.000 C 157.833 256.827,157.858 256.833,161.000 256.851 L 164.167 256.870 161.104 256.756 C 158.249 256.651,158.033 256.593,157.906 255.905 C 157.791 255.284,157.774 255.299,157.801 256.000 M195.146 263.833 C 195.146 268.783,195.192 270.855,195.249 268.437 C 195.306 266.018,195.306 261.968,195.249 259.437 C 195.193 256.905,195.146 258.883,195.146 263.833 M138.393 267.750 L 138.453 269.500 138.578 267.929 L 138.702 266.357 141.934 266.248 L 145.167 266.140 141.750 266.070 L 138.333 266.000 138.393 267.750 M197.450 277.000 C 197.450 278.558,197.507 279.196,197.577 278.417 C 197.648 277.637,197.648 276.362,197.577 275.583 C 197.507 274.804,197.450 275.442,197.450 277.000 " stroke="none" fill="#adadf4" fill-rule="evenodd"></path><path id="path4" d="M247.403 243.223 C 246.299 243.455,244.466 245.418,244.224 246.628 C 243.535 250.074,246.827 253.102,250.090 252.025 C 255.745 250.159,253.252 241.993,247.403 243.223 M148.055 245.178 C 141.766 246.543,138.451 251.786,140.185 257.626 C 141.258 261.238,143.991 263.100,150.301 264.522 C 156.607 265.942,158.335 267.037,158.332 269.609 C 158.329 272.483,156.229 274.004,152.283 273.993 C 147.625 273.979,145.000 271.703,145.000 267.677 L 145.000 266.333 141.789 266.333 L 138.579 266.333 138.735 268.768 C 139.626 282.648,163.136 284.323,164.834 270.628 C 165.585 264.563,162.409 261.027,154.667 259.307 C 147.961 257.818,146.333 256.866,146.333 254.433 C 146.333 248.740,156.939 249.501,157.860 255.261 L 158.085 256.667 161.255 256.667 L 164.425 256.667 164.257 254.577 C 163.693 247.552,156.457 243.354,148.055 245.178 M205.000 248.000 L 205.000 251.000 209.167 251.000 L 213.333 251.000 213.333 262.323 L 213.333 273.647 209.083 273.740 L 204.833 273.833 204.737 276.750 L 204.641 279.667 216.154 279.667 L 227.667 279.667 227.667 276.667 L 227.667 273.667 223.667 273.667 L 219.667 273.667 219.667 259.333 L 219.667 245.000 212.333 245.000 L 205.000 245.000 205.000 248.000 M178.650 255.102 C 168.782 257.887,167.792 274.896,177.255 279.055 C 181.013 280.707,185.521 279.848,187.495 277.104 C 188.577 275.600,189.243 275.322,189.542 276.250 C 190.451 279.079,191.384 279.667,194.967 279.667 L 197.333 279.667 197.333 276.667 C 197.333 273.700,197.324 273.667,196.512 273.667 C 195.116 273.667,195.000 272.900,195.000 263.689 L 195.000 255.000 192.000 255.000 L 189.000 255.000 189.000 256.333 C 189.000 257.900,188.487 258.061,187.351 256.852 C 185.675 255.068,181.642 254.257,178.650 255.102 M238.000 258.000 L 238.000 261.000 241.833 261.000 L 245.667 261.000 245.667 267.333 L 245.667 273.667 241.500 273.667 L 237.333 273.667 237.333 276.667 L 237.333 279.667 248.167 279.667 L 259.000 279.667 259.000 276.667 L 259.000 273.667 255.412 273.667 L 251.824 273.667 251.833 264.333 L 251.842 255.000 244.921 255.000 L 238.000 255.000 238.000 258.000 M186.054 261.404 C 191.498 264.463,189.206 274.000,183.027 274.000 C 178.476 274.000,176.089 270.553,177.056 265.376 C 177.807 261.354,182.377 259.337,186.054 261.404 M49.524 306.524 C 48.640 307.407,49.268 309.000,50.500 309.000 C 51.084 309.000,52.000 308.084,52.000 307.500 C 52.000 306.916,51.084 306.000,50.500 306.000 C 50.251 306.000,49.812 306.236,49.524 306.524 M183.857 306.524 C 183.569 306.812,183.333 307.251,183.333 307.500 C 183.333 307.749,183.569 308.188,183.857 308.476 C 184.145 308.764,184.585 309.000,184.833 309.000 C 185.082 309.000,185.521 308.764,185.810 308.476 C 186.098 308.188,186.333 307.749,186.333 307.500 C 186.333 307.251,186.098 306.812,185.810 306.524 C 185.521 306.236,185.082 306.000,184.833 306.000 C 184.585 306.000,184.145 306.236,183.857 306.524 M37.703 307.132 C 34.812 308.735,35.873 312.247,39.475 312.995 C 41.634 313.443,42.561 314.285,42.017 315.302 C 41.157 316.908,38.377 316.538,37.848 314.746 C 37.458 313.428,35.667 313.103,35.667 314.350 C 35.667 318.959,43.998 319.332,44.119 314.729 C 44.166 312.909,43.384 312.143,40.648 311.328 C 38.427 310.666,37.838 310.143,38.214 309.164 C 38.690 307.924,41.551 308.320,41.906 309.675 C 42.115 310.477,44.000 310.634,44.000 309.849 C 44.000 307.356,40.232 305.730,37.703 307.132 M69.667 308.333 L 69.667 310.000 68.311 310.000 C 66.324 310.000,66.420 311.772,68.417 311.937 L 69.667 312.040 69.667 314.818 C 69.667 317.969,69.693 318.000,72.361 318.000 C 73.960 318.000,74.000 317.976,74.000 317.000 C 74.000 316.056,73.926 316.000,72.667 316.000 L 71.333 316.000 71.333 314.000 L 71.333 312.000 72.833 312.000 C 74.278 312.000,74.333 311.963,74.333 311.000 C 74.333 310.037,74.278 310.000,72.833 310.000 L 71.333 310.000 71.333 308.333 C 71.333 306.778,71.278 306.667,70.500 306.667 C 69.722 306.667,69.667 306.778,69.667 308.333 M125.000 308.833 C 125.000 311.118,124.891 311.275,123.853 310.489 C 121.221 308.499,117.863 311.592,118.684 315.250 C 119.235 317.700,122.358 318.963,123.833 317.333 C 124.165 316.967,124.563 316.667,124.718 316.667 C 124.873 316.667,125.000 316.967,125.000 317.333 C 125.000 317.822,125.222 318.000,125.833 318.000 L 126.667 318.000 126.667 312.333 L 126.667 306.667 125.833 306.667 C 125.030 306.667,125.000 306.744,125.000 308.833 M150.519 311.750 C 149.856 314.546,149.229 317.106,149.127 317.440 C 148.969 317.954,149.107 318.030,150.034 317.940 C 150.954 317.850,151.173 317.660,151.407 316.750 C 151.682 315.681,151.711 315.667,153.667 315.667 C 155.622 315.667,155.651 315.681,155.926 316.750 C 156.162 317.664,156.378 317.850,157.314 317.941 C 158.126 318.020,158.379 317.931,158.256 317.608 C 158.164 317.365,157.530 314.804,156.846 311.917 L 155.602 306.667 153.663 306.667 L 151.724 306.667 150.519 311.750 M232.333 312.333 L 232.333 318.000 236.000 318.000 L 239.667 318.000 239.667 317.000 L 239.667 316.000 237.000 316.000 L 234.333 316.000 234.333 311.333 L 234.333 306.667 233.333 306.667 L 232.333 306.667 232.333 312.333 M279.667 308.833 C 279.667 311.118,279.558 311.275,278.520 310.489 C 275.888 308.499,272.529 311.592,273.351 315.250 C 273.901 317.700,277.025 318.963,278.500 317.333 C 278.832 316.967,279.230 316.667,279.385 316.667 C 279.540 316.667,279.667 316.967,279.667 317.333 C 279.667 317.822,279.889 318.000,280.500 318.000 L 281.333 318.000 281.333 312.333 L 281.333 306.667 280.500 306.667 C 279.697 306.667,279.667 306.744,279.667 308.833 M304.667 307.667 C 304.667 308.611,304.741 308.667,306.000 308.667 L 307.333 308.667 307.333 312.333 L 307.333 316.000 306.000 316.000 C 304.741 316.000,304.667 316.056,304.667 317.000 L 304.667 318.000 308.333 318.000 L 312.000 318.000 312.000 317.000 C 312.000 316.056,311.926 316.000,310.667 316.000 L 309.333 316.000 309.333 312.333 L 309.333 308.667 310.667 308.667 C 311.926 308.667,312.000 308.611,312.000 307.667 L 312.000 306.667 308.333 306.667 L 304.667 306.667 304.667 307.667 M321.000 308.833 C 321.000 311.118,320.891 311.275,319.853 310.489 C 317.221 308.499,313.863 311.592,314.684 315.250 C 315.235 317.700,318.358 318.963,319.833 317.333 C 320.165 316.967,320.563 316.667,320.718 316.667 C 320.873 316.667,321.000 316.967,321.000 317.333 C 321.000 317.822,321.222 318.000,321.833 318.000 L 322.667 318.000 322.667 312.333 L 322.667 306.667 321.833 306.667 C 321.030 306.667,321.000 306.744,321.000 308.833 M154.334 309.583 C 154.544 310.637,154.842 311.987,154.998 312.583 L 155.280 313.667 153.676 313.667 L 152.072 313.667 152.694 310.917 C 153.036 309.404,153.320 308.054,153.325 307.917 C 153.359 306.921,154.022 308.017,154.334 309.583 M47.000 311.000 C 47.000 311.944,47.074 312.000,48.333 312.000 L 49.667 312.000 49.667 314.000 L 49.667 316.000 48.333 316.000 C 47.074 316.000,47.000 316.056,47.000 317.000 L 47.000 318.000 50.333 318.000 L 53.667 318.000 53.667 317.000 C 53.667 316.079,53.574 316.000,52.500 316.000 L 51.333 316.000 51.333 313.000 L 51.333 310.000 49.167 310.000 L 47.000 310.000 47.000 311.000 M58.833 310.398 C 56.598 311.666,57.453 313.971,60.355 314.501 C 62.129 314.825,62.558 315.161,62.021 315.808 C 61.474 316.467,60.326 316.483,59.480 315.844 C 58.284 314.939,57.097 315.330,57.539 316.482 C 58.306 318.480,63.374 318.448,63.877 316.443 C 64.314 314.703,63.177 313.333,61.296 313.333 C 60.103 313.333,59.232 312.690,59.686 312.143 C 60.195 311.530,61.140 311.533,61.651 312.148 C 62.060 312.640,63.667 312.233,63.667 311.637 C 63.667 310.430,60.299 309.567,58.833 310.398 M79.101 310.652 C 77.666 311.527,77.064 313.452,77.632 315.349 C 78.368 317.806,81.792 318.880,83.815 317.288 C 85.172 316.221,84.310 315.391,82.517 316.039 C 81.477 316.415,81.164 316.408,80.424 315.991 C 78.641 314.986,79.095 314.667,82.306 314.667 C 85.329 314.667,85.333 314.665,85.333 313.817 C 85.333 310.725,81.868 308.965,79.101 310.652 M87.333 314.000 L 87.333 318.000 88.333 318.000 L 89.333 318.000 89.333 314.833 C 89.333 311.889,89.380 311.667,90.000 311.667 C 90.620 311.667,90.667 311.889,90.667 314.833 L 90.667 318.000 91.667 318.000 L 92.667 318.000 92.667 314.833 C 92.667 311.889,92.713 311.667,93.333 311.667 C 93.953 311.667,94.000 311.889,94.000 314.833 L 94.000 318.000 95.000 318.000 L 96.000 318.000 96.000 314.645 C 96.000 310.345,94.824 308.643,93.067 310.400 C 92.756 310.711,92.578 310.711,92.267 310.400 C 92.047 310.180,91.477 310.000,91.000 310.000 C 90.523 310.000,89.953 310.180,89.733 310.400 C 89.422 310.711,89.333 310.711,89.333 310.400 C 89.333 310.178,88.889 310.000,88.333 310.000 L 87.333 310.000 87.333 314.000 M99.220 310.685 C 96.478 312.841,97.874 318.000,101.199 318.000 C 101.912 318.000,102.551 317.738,102.992 317.266 L 103.676 316.531 104.190 317.266 C 104.999 318.421,106.333 318.255,106.333 317.000 C 106.333 316.450,106.183 316.000,106.000 316.000 C 105.802 316.000,105.667 314.778,105.667 313.000 L 105.667 310.000 104.694 310.000 C 104.160 310.000,103.653 310.188,103.569 310.417 C 103.447 310.750,103.328 310.750,102.975 310.417 C 102.284 309.765,100.200 309.913,99.220 310.685 M130.768 310.652 C 129.332 311.527,128.730 313.452,129.299 315.349 C 130.035 317.806,133.458 318.880,135.481 317.288 C 136.839 316.221,135.977 315.391,134.184 316.039 C 133.144 316.415,132.830 316.408,132.090 315.991 C 130.308 314.986,130.761 314.667,133.972 314.667 C 136.995 314.667,137.000 314.665,137.000 313.817 C 137.000 310.725,133.534 308.965,130.768 310.652 M160.000 315.667 L 160.000 321.333 160.833 321.333 C 161.637 321.333,161.667 321.256,161.667 319.167 C 161.667 316.882,161.775 316.725,162.814 317.511 C 165.473 319.522,168.748 316.443,167.961 312.672 C 167.468 310.310,164.283 309.064,162.833 310.667 C 162.502 311.033,162.103 311.333,161.948 311.333 C 161.793 311.333,161.667 311.033,161.667 310.667 C 161.667 310.178,161.444 310.000,160.833 310.000 L 160.000 310.000 160.000 315.667 M172.463 310.309 C 170.187 311.287,169.558 314.788,171.306 316.745 C 173.738 319.467,178.333 317.672,178.333 314.000 C 178.333 311.029,175.270 309.102,172.463 310.309 M181.333 311.000 C 181.333 311.944,181.407 312.000,182.667 312.000 L 184.000 312.000 184.000 314.000 L 184.000 316.000 182.667 316.000 C 181.407 316.000,181.333 316.056,181.333 317.000 L 181.333 318.000 184.667 318.000 L 188.000 318.000 188.000 317.000 C 188.000 316.079,187.907 316.000,186.833 316.000 L 185.667 316.000 185.667 313.000 L 185.667 310.000 183.500 310.000 L 181.333 310.000 181.333 311.000 M193.129 310.309 C 190.853 311.287,190.224 314.788,191.973 316.745 C 194.405 319.467,199.000 317.672,199.000 314.000 C 199.000 311.029,195.936 309.102,193.129 310.309 M212.553 310.685 C 209.811 312.841,211.207 318.000,214.532 318.000 C 215.246 318.000,215.885 317.738,216.325 317.266 L 217.009 316.531 217.523 317.266 C 218.332 318.421,219.667 318.255,219.667 317.000 C 219.667 316.450,219.517 316.000,219.333 316.000 C 219.136 316.000,219.000 314.778,219.000 313.000 L 219.000 310.000 218.028 310.000 C 217.493 310.000,216.987 310.188,216.903 310.417 C 216.781 310.750,216.662 310.750,216.308 310.417 C 215.617 309.765,213.534 309.913,212.553 310.685 M243.553 310.685 C 240.811 312.841,242.207 318.000,245.532 318.000 C 246.246 318.000,246.885 317.738,247.325 317.266 L 248.009 316.531 248.523 317.266 C 249.332 318.421,250.667 318.255,250.667 317.000 C 250.667 316.450,250.517 316.000,250.333 316.000 C 250.136 316.000,250.000 314.778,250.000 313.000 L 250.000 310.000 249.028 310.000 C 248.493 310.000,247.987 310.188,247.903 310.417 C 247.781 310.750,247.662 310.750,247.308 310.417 C 246.617 309.765,244.534 309.913,243.553 310.685 M252.667 311.000 C 252.667 311.778,252.815 312.000,253.333 312.000 C 253.926 312.000,254.000 312.222,254.000 314.000 C 254.000 315.911,253.963 316.000,253.167 316.000 C 252.463 316.000,252.333 316.156,252.333 317.000 L 252.333 318.000 255.115 318.000 L 257.897 318.000 257.850 317.083 C 257.812 316.350,257.622 316.146,256.901 316.061 C 256.060 315.963,256.000 315.848,256.000 314.335 C 256.000 311.851,257.972 310.630,258.829 312.583 C 259.413 313.915,261.252 313.341,260.830 311.958 C 260.219 309.958,258.231 309.354,256.771 310.725 L 256.000 311.450 256.000 310.725 C 256.000 310.077,255.822 310.000,254.333 310.000 C 252.704 310.000,252.667 310.022,252.667 311.000 M285.435 310.652 C 283.999 311.527,283.397 313.452,283.965 315.349 C 284.701 317.806,288.125 318.880,290.148 317.288 C 291.505 316.221,290.643 315.391,288.850 316.039 C 287.811 316.415,287.497 316.408,286.757 315.991 C 284.975 314.986,285.428 314.667,288.639 314.667 C 291.662 314.667,291.667 314.665,291.667 313.817 C 291.667 310.725,288.201 308.965,285.435 310.652 M327.129 310.309 C 324.853 311.287,324.224 314.788,325.973 316.745 C 328.405 319.467,333.000 317.672,333.000 314.000 C 333.000 311.029,329.936 309.102,327.129 310.309 M337.500 310.398 C 335.265 311.666,336.120 313.971,339.022 314.501 C 340.796 314.825,341.225 315.161,340.688 315.808 C 340.141 316.467,338.992 316.483,338.147 315.844 C 336.951 314.939,335.764 315.330,336.206 316.482 C 336.972 318.480,342.041 318.448,342.544 316.443 C 342.981 314.703,341.844 313.333,339.962 313.333 C 338.769 313.333,337.899 312.690,338.353 312.143 C 338.861 311.530,339.807 311.533,340.318 312.148 C 340.727 312.640,342.333 312.233,342.333 311.637 C 342.333 310.430,338.966 309.567,337.500 310.398 M347.796 310.309 C 345.520 311.287,344.891 314.788,346.639 316.745 C 349.071 319.467,353.667 317.672,353.667 314.000 C 353.667 311.029,350.603 309.102,347.796 310.309 M358.167 310.398 C 355.931 311.666,356.786 313.971,359.688 314.501 C 361.462 314.825,361.891 315.161,361.354 315.808 C 360.807 316.467,359.659 316.483,358.814 315.844 C 357.618 314.939,356.430 315.330,356.873 316.482 C 357.639 318.480,362.708 318.448,363.211 316.443 C 363.648 314.703,362.511 313.333,360.629 313.333 C 359.436 313.333,358.566 312.690,359.019 312.143 C 359.528 311.530,360.474 311.533,360.984 312.148 C 361.393 312.640,363.000 312.233,363.000 311.637 C 363.000 310.430,359.633 309.567,358.167 310.398 M82.853 312.156 C 83.443 312.603,83.310 312.645,81.333 312.645 C 79.357 312.645,79.223 312.603,79.814 312.156 C 80.170 311.887,80.853 311.667,81.333 311.667 C 81.813 311.667,82.497 311.887,82.853 312.156 M102.943 312.198 C 103.561 312.630,103.683 312.985,103.601 314.104 C 103.392 316.953,99.968 317.090,99.731 314.259 C 99.554 312.149,101.287 311.038,102.943 312.198 M124.019 312.281 C 125.615 313.574,124.556 316.333,122.463 316.333 C 121.365 316.333,120.333 315.203,120.333 314.000 C 120.333 312.002,122.453 311.014,124.019 312.281 M134.520 312.156 C 135.110 312.603,134.977 312.645,133.000 312.645 C 131.023 312.645,130.890 312.603,131.480 312.156 C 131.836 311.887,132.520 311.667,133.000 311.667 C 133.480 311.667,134.164 311.887,134.520 312.156 M165.667 312.333 C 167.028 313.695,166.063 316.333,164.204 316.333 C 162.942 316.333,161.889 315.271,161.889 314.000 C 161.889 311.980,164.265 310.931,165.667 312.333 M175.848 312.485 C 176.298 312.935,176.667 313.617,176.667 314.000 C 176.667 314.383,176.298 315.065,175.848 315.515 C 175.398 315.965,174.717 316.333,174.333 316.333 C 173.950 316.333,173.268 315.965,172.818 315.515 C 172.368 315.065,172.000 314.383,172.000 314.000 C 172.000 313.617,172.368 312.935,172.818 312.485 C 173.268 312.035,173.950 311.667,174.333 311.667 C 174.717 311.667,175.398 312.035,175.848 312.485 M196.515 312.485 C 196.965 312.935,197.333 313.617,197.333 314.000 C 197.333 314.383,196.965 315.065,196.515 315.515 C 196.065 315.965,195.383 316.333,195.000 316.333 C 194.617 316.333,193.935 315.965,193.485 315.515 C 193.035 315.065,192.667 314.383,192.667 314.000 C 192.667 313.617,193.035 312.935,193.485 312.485 C 193.935 312.035,194.617 311.667,195.000 311.667 C 195.383 311.667,196.065 312.035,196.515 312.485 M216.277 312.198 C 216.894 312.630,217.016 312.985,216.934 314.104 C 216.725 316.953,213.302 317.090,213.064 314.259 C 212.888 312.149,214.620 311.038,216.277 312.198 M247.277 312.198 C 247.894 312.630,248.016 312.985,247.934 314.104 C 247.725 316.953,244.302 317.090,244.064 314.259 C 243.888 312.149,245.620 311.038,247.277 312.198 M278.685 312.281 C 280.282 313.574,279.223 316.333,277.130 316.333 C 276.031 316.333,275.000 315.203,275.000 314.000 C 275.000 312.002,277.120 311.014,278.685 312.281 M289.186 312.156 C 289.777 312.603,289.643 312.645,287.667 312.645 C 285.690 312.645,285.557 312.603,286.147 312.156 C 286.503 311.887,287.187 311.667,287.667 311.667 C 288.147 311.667,288.830 311.887,289.186 312.156 M320.019 312.281 C 321.615 313.574,320.556 316.333,318.463 316.333 C 317.365 316.333,316.333 315.203,316.333 314.000 C 316.333 312.002,318.453 311.014,320.019 312.281 M330.515 312.485 C 330.965 312.935,331.333 313.617,331.333 314.000 C 331.333 314.383,330.965 315.065,330.515 315.515 C 330.065 315.965,329.383 316.333,329.000 316.333 C 328.617 316.333,327.935 315.965,327.485 315.515 C 327.035 315.065,326.667 314.383,326.667 314.000 C 326.667 313.617,327.035 312.935,327.485 312.485 C 327.935 312.035,328.617 311.667,329.000 311.667 C 329.383 311.667,330.065 312.035,330.515 312.485 M351.182 312.485 C 352.554 313.857,351.579 316.333,349.667 316.333 C 348.767 316.333,347.333 314.899,347.333 314.000 C 347.333 313.101,348.767 311.667,349.667 311.667 C 350.050 311.667,350.732 312.035,351.182 312.485 " stroke="none" fill="#5244c5" fill-rule="evenodd"></path></g></svg>